<svg data-name="Layer 1" xmlns="http://www.w3.org/2000/svg" width="308.59322" height="247.66033" viewBox="0 0 308.59322 247.66033" xmlns:xlink="http://www.w3.org/1999/xlink"><path d="M458.50363,408.17458c-18.0021,17.63382-15.6649,49.57575.89086,68.574s43.44554,26.32291,68.60919,24.97449S577.23646,491.494,599.5864,486.226L595.202,415.34411C546.72948,415.83127,498.257,416.31843,458.50363,408.17458Z" transform="translate(-444.08789 -325.44867)" fill="#fdd65d"/><path d="M598.7103,392.73873c.92351-.84446,1.834-1.70523,2.74988-2.5554-10.80287,4.39128-21.60574,8.79533-32.21522,13.64076-4.50672,1.98636-8.92652,4.12672-13.33437,6.28664-2.91937-15.00755-5.91371-30.0007-8.706-45.01884A420.01447,420.01447,0,0,0,544.5232,415.943c-14.80656,7.83325-29.17308,16.44632-43.27559,25.50892q-2.44947-12.54477-4.97065-25.07c-1.3016-7.08494-2.84658-14.12316-4.08516-21.21923a2.38333,2.38333,0,0,1-.088-.30313c-.03368-2.3582.67362-5.74693-1.32007-6.44445a.77066.77066,0,0,0-.65189.56225,424.13742,424.13742,0,0,0-.41069,59.95414c-15.30633,10.11133-30.41275,20.5486-45.63325,30.73462A404.60381,404.60381,0,0,0,490.825,462.87265c1.08431,11.37708,2.66188,22.70771,4.6295,33.96744A328.75222,328.75222,0,0,0,455.54482,525.496c14.21768-4.808,28.4484-9.78892,42.45747-15.29629a434.26584,434.26584,0,0,0,15.25635,55.32167c1.42981,3.26215,3.92763,12.66211,2.83789,4.04388-1.27227-21.61715-2.412-43.259-4.89242-64.77567a354.20985,354.20985,0,0,0,42.75082-21.36075c4.52519,16.31622,10.22052,32.33257,16.16574,48.15389q.73825,1.93937,1.46457,3.88226c-.16514-13.314-.56714-26.63832-1.90243-39.89256-.72142-6.85351-1.59821-13.68367-2.5467-20.503q13.14042-8.60574,25.53445-18.28085c-1.18535.31318-2.375.62066-3.5604.93845-7.94,1.97359-15.78,4.26091-23.52772,6.79566-2.02085-13.17-4.32745-26.29689-6.79919-39.39685A356.28256,356.28256,0,0,0,598.7103,392.73873Zm-89.49771,96.13312q-2.11537-16.07475-5.03909-32.02482a381.03157,381.03157,0,0,0,41.07438-22.64822c.50412,7.0681,1.2451,14.11881,2.30768,21.13367.83768,4.86988,1.8644,9.69874,2.97261,14.50885A333.08947,333.08947,0,0,0,509.21259,488.87185Z" transform="translate(-444.08789 -325.44867)"/><path d="M703.55563,510.052c-10.94955-3.06387-21.37541-5.52855-31.5579-7.52849,4.84027-43.01864,8.10188-60.26488,14.29482-117.60142,1.43958-12.43123,3.807-41.69938,4.01454-45.95457,2.84549-9.171-8.13447-17.66644-15.85283-11.31569-2.21425,1.31083-3.03019,3.781-4.071,5.98623-12.84437,24.39637-25.14549,49.076-37.24888,73.84642,8.95911-9.3019,17.82914-18.74205,26.35474-28.47365a681.0046,681.0046,0,0,0-14.347,117.53758c-3.31377.27027-6.62862.53672-9.95.69752-.66493-.06-1.32768-.13608-1.9926-.19258-11.27549-.74967-17.89107,13.57666-8.48976,20.65861,4.48934,3.55958,10.87567,3.03644,16.26678,4.11939,9.774,1.60337,24.009,2.4185,29.01336-7.56734,9.38176-.92378,19.19376-1.71256,28.97969-2.51384C701.80422,511.1743,711.72161,511.73927,703.55563,510.052Z" transform="translate(-444.08789 -325.44867)"/><path d="M735.10484,482.48851c-23.46362.58126-23.4017,34.95641.00109,35.60178C758.57064,517.50875,758.50871,483.1336,735.10484,482.48851Z" transform="translate(-444.08789 -325.44867)"/></svg>